<?xml version="1.0" encoding="UTF-8"?>
<svg width="20px" height="20px" viewBox="0 0 20 20" version="1.1" xmlns="http://www.w3.org/2000/svg" xmlns:xlink="http://www.w3.org/1999/xlink">
    <!-- Generator: Sketch 42 (36781) - http://www.bohemiancoding.com/sketch -->
    <title>images/compare-button</title>
    <desc>Created with Sketch.</desc>
    <defs></defs>
    <g id="Page-1" stroke="none" stroke-width="1" fill="none" fill-rule="evenodd">
        <g id="images/compare-button">
            <rect id="Rectangle-2" x="0" y="0" width="20" height="20"></rect>
            <g id="compare" transform="translate(2.000000, 1.000000)" fill="#333333">
                <path d="M13,13.2674125 C12.4021188,13.6131303 12,14.259445 12,15 C12,16.1048889 12.8951111,17 14,17 C15.1048889,17 16,16.1048889 16,15 C16,14.259445 15.5978812,13.6131303 15,13.2674125 L15,4.99878564 C15,3.34226429 13.6610488,2 12.0093689,2 L11,2 L11,0 L7,3 L11,6 L11,4 L12,4 C12.5561352,4 13,4.44573523 13,4.9955775 L13,13.2674125 Z" id="Combined-Shape"></path>
                <path d="M6,14.2674125 C5.40211881,14.6131303 5,15.259445 5,16 C5,17.1048889 5.89511111,18 7,18 C8.10488889,18 9,17.1048889 9,16 C9,15.259445 8.59788119,14.6131303 8,14.2674125 L8,5.99878564 C8,4.34226429 6.66104885,3 5.0093689,3 L4,3 L4,1 L0,4 L4,7 L4,5 L5,5 C5.55613518,5 6,5.44573523 6,5.9955775 L6,14.2674125 Z" id="Combined-Shape-Copy" transform="translate(4.500000, 9.500000) scale(-1, -1) translate(-4.500000, -9.500000) "></path>
            </g>
        </g>
    </g>
</svg>