<?xml version="1.0" encoding="UTF-8" standalone="no"?>
<svg width="20px" height="20px" viewBox="0 0 20 20" version="1.1" xmlns="http://www.w3.org/2000/svg" xmlns:xlink="http://www.w3.org/1999/xlink" xmlns:sketch="http://www.bohemiancoding.com/sketch/ns">
    <!-- Generator: Sketch 3.5.2 (25235) - http://www.bohemiancoding.com/sketch -->
    <title>images/create-version-button_4</title>
    <desc>Created with Sketch.</desc>
    <defs></defs>
    <g id="Page-1" stroke="none" stroke-width="1" fill="none" fill-rule="evenodd" sketch:type="MSPage">
        <g id="images/create-version-button_4" sketch:type="MSArtboardGroup">
            <rect id="Bounds" sketch:type="MSShapeGroup" x="0" y="0" width="20" height="20"></rect>
            <g id="CreateVersion" sketch:type="MSLayerGroup" transform="translate(3.000000, 1.000000)">
                <path d="M11,13 L8,13 L8,15 L11,15 L11,18 L13,18 L13,15 L16,15 L16,13 L13,13 L13,10 L11,10 L11,13 Z" id="Rectangle-64" fill="#616B73" sketch:type="MSShapeGroup"></path>
                <path d="M4,0 L2,0 L2,2 L4,2 L4,0 L4,0 Z M4,16 L2,16 L2,18 L4,18 L4,16 Z M4,3 L2,3 L2,5 L4,5 L4,3 Z M3,12 C4.65685425,12 6,10.6568542 6,9 C6,7.34314575 4.65685425,6 3,6 C1.34314575,6 0,7.34314575 0,9 C0,10.6568542 1.34314575,12 3,12 Z M4,13 L2,13 L2,15 L4,15 L4,13 Z" id="Shape" fill="#333333" sketch:type="MSShapeGroup"></path>
            </g>
        </g>
    </g>
</svg>